<svg width="16" height="30" viewBox="0 0 16 30" fill="none" xmlns="http://www.w3.org/2000/svg">
<rect x="0.421053" y="1.21793" width="15.1579" height="27.7895" rx="7.57895" stroke="white" stroke-width="0.842105"/>
<path d="M8.64874 11.6077C8.64874 11.3688 8.45513 11.1752 8.21631 11.1752C7.97748 11.1752 7.78388 11.3688 7.78388 11.6077H8.64874ZM7.91053 23.3729C8.07941 23.5418 8.35321 23.5418 8.52208 23.3729L11.2741 20.6209C11.4429 20.452 11.4429 20.1782 11.2741 20.0094C11.1052 19.8405 10.8314 19.8405 10.6625 20.0094L8.21631 22.4556L5.7701 20.0094C5.60123 19.8405 5.32743 19.8405 5.15855 20.0094C4.98967 20.1782 4.98967 20.452 5.15855 20.6209L7.91053 23.3729ZM7.78388 11.6077V23.0671H8.64874V11.6077H7.78388Z" fill="white"/>
</svg>
