<svg width="201" height="38" viewBox="0 0 201 38" fill="none" xmlns="http://www.w3.org/2000/svg">
<path d="M13.1752 21.7486C12.7378 21.7486 12.3183 21.9224 12.0091 22.2317C11.6998 22.541 11.526 22.9604 11.526 23.3978V26.0091L8.57671 23.0639C8.11602 22.6056 7.75078 22.0605 7.50214 21.4601C7.2535 20.8597 7.12639 20.216 7.12817 19.5662V14.8687C8.22853 14.4797 9.15594 13.7142 9.74648 12.7075C10.337 11.7008 10.5527 10.5178 10.3553 9.36747C10.1579 8.21716 9.56028 7.17366 8.66795 6.42139C7.77563 5.66913 6.64608 5.25653 5.47897 5.25653C4.31186 5.25653 3.18231 5.66913 2.28999 6.42139C1.39766 7.17366 0.799996 8.21716 0.602635 9.36747C0.405273 10.5178 0.620919 11.7008 1.21146 12.7075C1.802 13.7142 2.72941 14.4797 3.82977 14.8687V19.5662C3.82689 20.6493 4.03882 21.7223 4.45329 22.723C4.86777 23.7237 5.47657 24.6322 6.24447 25.3961L9.18966 28.3454H6.57843C6.14104 28.3454 5.72156 28.5192 5.41228 28.8285C5.10299 29.1378 4.92924 29.5572 4.92924 29.9946C4.92924 30.432 5.10299 30.8515 5.41228 31.1608C5.72156 31.4701 6.14104 31.6438 6.57843 31.6438H13.1752C13.6126 31.6438 14.0321 31.4701 14.3414 31.1608C14.6507 30.8515 14.8244 30.432 14.8244 29.9946V23.3978C14.8244 22.9604 14.6507 22.541 14.3414 22.2317C14.0321 21.9224 13.6126 21.7486 13.1752 21.7486ZM5.47897 8.55508C5.80515 8.55508 6.12401 8.6518 6.39521 8.83302C6.66642 9.01423 6.87781 9.2718 7.00263 9.57315C7.12745 9.8745 7.16011 10.2061 7.09648 10.526C7.03284 10.8459 6.87577 11.1398 6.64513 11.3704C6.41448 11.6011 6.12063 11.7581 5.80071 11.8218C5.4808 11.8854 5.1492 11.8528 4.84785 11.7279C4.5465 11.6031 4.28893 11.3917 4.10771 11.1205C3.9265 10.8493 3.82977 10.5305 3.82977 10.2043C3.82977 9.76688 4.00353 9.3474 4.31281 9.03812C4.6221 8.72883 5.04158 8.55508 5.47897 8.55508ZM26.9185 23.1312V18.4338C26.9214 17.3506 26.7095 16.2777 26.295 15.277C25.8805 14.2763 25.2717 13.3677 24.5038 12.6039L21.5586 9.65454H24.1699C24.6073 9.65454 25.0267 9.48079 25.336 9.1715C25.6453 8.86222 25.8191 8.44274 25.8191 8.00535C25.8191 7.56795 25.6453 7.14847 25.336 6.83919C25.0267 6.5299 24.6073 6.35615 24.1699 6.35615H17.5731C17.1357 6.35615 16.7162 6.5299 16.4069 6.83919C16.0976 7.14847 15.9239 7.56795 15.9239 8.00535V14.6021C15.9239 15.0395 16.0976 15.459 16.4069 15.7683C16.7162 16.0776 17.1357 16.2513 17.5731 16.2513C18.0105 16.2513 18.4299 16.0776 18.7392 15.7683C19.0485 15.459 19.2223 15.0395 19.2223 14.6021V11.9909L22.1716 14.9402C22.6318 15.398 22.9967 15.9424 23.2454 16.5421C23.494 17.1417 23.6214 17.7846 23.6201 18.4338V23.1312C22.5198 23.5203 21.5924 24.2858 21.0018 25.2925C20.4113 26.2991 20.1956 27.4822 20.393 28.6325C20.5903 29.7828 21.188 30.8263 22.0803 31.5786C22.9727 32.3308 24.1022 32.7434 25.2693 32.7434C26.4364 32.7434 27.566 32.3308 28.4583 31.5786C29.3506 30.8263 29.9483 29.7828 30.1457 28.6325C30.343 27.4822 30.1274 26.2991 29.5368 25.2925C28.9463 24.2858 28.0189 23.5203 26.9185 23.1312ZM25.2693 29.4449C24.9431 29.4449 24.6243 29.3482 24.3531 29.167C24.0819 28.9857 23.8705 28.7282 23.7457 28.4268C23.6208 28.1255 23.5882 27.7939 23.6518 27.474C23.7154 27.154 23.8725 26.8602 24.1032 26.6295C24.3338 26.3989 24.6277 26.2418 24.9476 26.1782C25.2675 26.1146 25.5991 26.1472 25.9004 26.272C26.2018 26.3969 26.4594 26.6082 26.6406 26.8795C26.8218 27.1507 26.9185 27.4695 26.9185 27.7957C26.9185 28.2331 26.7448 28.6526 26.4355 28.9619C26.1262 29.2711 25.7067 29.4449 25.2693 29.4449Z" fill="white"/>
<path d="M56.1432 22.2103C55.697 24.8272 54.6624 26.8659 53.0396 28.3264C51.4167 29.7667 49.3171 30.4869 46.7409 30.4869C44.6717 30.4869 42.8359 30 41.2333 29.0263C39.6511 28.0526 38.4339 26.7137 37.5819 25.0097C36.7502 23.2855 36.3344 21.3583 36.3344 19.2283C36.3344 17.0781 36.7604 15.1509 37.6123 13.4469C38.4643 11.7227 39.6713 10.3737 41.2333 9.39997C42.8156 8.40597 44.6515 7.90898 46.7409 7.90898C49.236 7.90898 51.2848 8.60883 52.8874 10.0085C54.5103 11.388 55.5651 13.3252 56.052 15.8204L51.2443 16.0334C50.9603 14.6742 50.4227 13.6295 49.6316 12.8992C48.8404 12.169 47.8464 11.8038 46.6496 11.8038C45.4325 11.8038 44.408 12.1182 43.5763 12.7471C42.7446 13.3759 42.1158 14.2584 41.6898 15.3944C41.284 16.5101 41.0812 17.7881 41.0812 19.2283C41.0812 20.6686 41.284 21.9466 41.6898 23.0623C42.1158 24.1577 42.7446 25.0199 43.5763 25.6487C44.408 26.2776 45.4325 26.592 46.6496 26.592C47.9073 26.592 48.9317 26.1964 49.7229 25.4053C50.5343 24.6142 51.0617 23.4883 51.3051 22.0278L56.1432 22.2103ZM63.7972 8.39583V25.314C63.7972 25.7197 63.8986 26.0342 64.1015 26.2573C64.3246 26.4804 64.639 26.592 65.0447 26.592H66.201V30H63.7059C62.3468 30 61.2615 29.6044 60.4501 28.8133C59.6386 28.0222 59.2329 26.9267 59.2329 25.527V8.39583H63.7972ZM68.6101 18.8632C68.9144 17.1389 69.7055 15.8204 70.9835 14.9075C72.2615 13.9744 73.9655 13.5078 76.0955 13.5078C78.55 13.5078 80.396 14.1062 81.6335 15.3031C82.8912 16.4796 83.52 18.2141 83.52 20.5063V25.5879C83.52 26.0747 83.6012 26.4196 83.7634 26.6224C83.946 26.805 84.1996 26.8963 84.5242 26.8963H85.1023V30L84.3112 30.0304L84.0373 30.0609C83.023 30.1217 82.0797 30.0101 81.2075 29.7261C80.3555 29.4219 79.8483 28.6916 79.686 27.5353C79.26 28.4076 78.5805 29.0973 77.6473 29.6044C76.7142 30.1116 75.5376 30.3651 74.1176 30.3651C72.4339 30.3651 71.0444 29.9493 69.9489 29.1176C68.8738 28.2656 68.3362 27.1397 68.3362 25.74C68.3362 24.7866 68.5695 23.9955 69.0361 23.3666C69.5027 22.7378 70.1721 22.2306 71.0444 21.8452C71.9167 21.4598 73.0526 21.1352 74.4524 20.8715L78.8949 19.9586C78.8746 18.7821 78.6312 17.9098 78.1646 17.3418C77.7183 16.7738 77.0185 16.4898 76.0651 16.4898C75.2942 16.4898 74.6654 16.7129 74.1785 17.1592C73.6916 17.5852 73.3569 18.2242 73.1744 19.0762L68.6101 18.8632ZM73.0222 25.5879C73.0222 26.1153 73.2352 26.5514 73.6612 26.8963C74.1075 27.2412 74.7364 27.4136 75.5478 27.4136C76.2172 27.3933 76.8055 27.2209 77.3126 26.8963C77.8198 26.5717 78.2153 26.0849 78.4993 25.4357C78.8036 24.7663 78.9558 23.9549 78.9558 23.0015V22.7885L76.3085 23.2753C76.1665 23.2956 76.0245 23.326 75.8825 23.3666C75.2131 23.4883 74.6856 23.6303 74.3002 23.7926C73.9148 23.9346 73.6004 24.1476 73.3569 24.4316C73.1338 24.7156 73.0222 25.101 73.0222 25.5879ZM97.3749 19.1066C97.2532 18.3763 96.9084 17.7881 96.3404 17.3418C95.7926 16.8955 95.1638 16.6724 94.4538 16.6724C93.7235 16.6724 93.1251 16.8448 92.6585 17.1896C92.2122 17.5345 91.9992 18.0011 92.0195 18.5893C92.0398 19.1371 92.3137 19.5631 92.8411 19.8673C93.3888 20.1513 94.1089 20.3846 95.0015 20.5672C96.6649 20.8309 98.0038 21.1656 99.0181 21.5713C100.032 21.9568 100.793 22.474 101.3 23.1232C101.807 23.752 102.061 24.5736 102.061 25.5879C102.061 26.6224 101.757 27.5049 101.148 28.2352C100.56 28.9451 99.7179 29.4827 98.6225 29.8479C97.5474 30.1927 96.3099 30.3651 94.9102 30.3651C93.3482 30.3651 91.979 30.1521 90.8024 29.7261C89.6258 29.2799 88.7028 28.651 88.0334 27.8396C87.3843 27.0079 87.0191 26.024 86.938 24.888L91.5327 24.675C91.6341 25.2025 91.8268 25.6487 92.1108 26.0139C92.3948 26.379 92.76 26.663 93.2062 26.8659C93.6728 27.0687 94.2002 27.1702 94.7885 27.1702C95.4782 27.1702 96.0766 27.0282 96.5838 26.7442C97.1112 26.4602 97.3749 26.0443 97.3749 25.4966C97.3749 25.1112 97.2634 24.8069 97.0402 24.5837C96.8171 24.3606 96.5229 24.178 96.1578 24.036C95.8129 23.894 95.3768 23.7723 94.8494 23.6709C94.6871 23.61 94.4842 23.5593 94.2408 23.5187C92.618 23.2145 91.3197 22.8696 90.346 22.4842C89.3723 22.0988 88.6217 21.6018 88.0943 20.9932C87.5871 20.3643 87.3336 19.5631 87.3336 18.5893C87.3336 17.5345 87.6175 16.6216 88.1855 15.8508C88.7535 15.0799 89.5853 14.4917 90.6807 14.0859C91.7761 13.6802 93.0947 13.4774 94.6364 13.4774C96.6446 13.4774 98.2979 13.9642 99.5962 14.9379C100.894 15.9116 101.675 17.2404 101.939 18.9241L97.3749 19.1066ZM114.877 19.1066C114.755 18.3763 114.411 17.7881 113.843 17.3418C113.295 16.8955 112.666 16.6724 111.956 16.6724C111.226 16.6724 110.627 16.8448 110.161 17.1896C109.715 17.5345 109.502 18.0011 109.522 18.5893C109.542 19.1371 109.816 19.5631 110.343 19.8673C110.891 20.1513 111.611 20.3846 112.504 20.5672C114.167 20.8309 115.506 21.1656 116.52 21.5713C117.535 21.9568 118.295 22.474 118.802 23.1232C119.31 23.752 119.563 24.5736 119.563 25.5879C119.563 26.6224 119.259 27.5049 118.65 28.2352C118.062 28.9451 117.22 29.4827 116.125 29.8479C115.05 30.1927 113.812 30.3651 112.413 30.3651C110.851 30.3651 109.481 30.1521 108.305 29.7261C107.128 29.2799 106.205 28.651 105.536 27.8396C104.887 27.0079 104.521 26.024 104.44 24.888L109.035 24.675C109.136 25.2025 109.329 25.6487 109.613 26.0139C109.897 26.379 110.262 26.663 110.709 26.8659C111.175 27.0687 111.703 27.1702 112.291 27.1702C112.981 27.1702 113.579 27.0282 114.086 26.7442C114.613 26.4602 114.877 26.0443 114.877 25.4966C114.877 25.1112 114.766 24.8069 114.542 24.5837C114.319 24.3606 114.025 24.178 113.66 24.036C113.315 23.894 112.879 23.7723 112.352 23.6709C112.189 23.61 111.987 23.5593 111.743 23.5187C110.12 23.2145 108.822 22.8696 107.848 22.4842C106.875 22.0988 106.124 21.6018 105.597 20.9932C105.089 20.3643 104.836 19.5631 104.836 18.5893C104.836 17.5345 105.12 16.6216 105.688 15.8508C106.256 15.0799 107.088 14.4917 108.183 14.0859C109.278 13.6802 110.597 13.4774 112.139 13.4774C114.147 13.4774 115.8 13.9642 117.098 14.9379C118.397 15.9116 119.178 17.2404 119.441 18.9241L114.877 19.1066ZM144.841 8.39583V12.2907H132L134.556 9.6434V19.5326L132 17.5244H144.293V21.3583H132L134.556 19.3501V30H129.931V8.39583H144.841ZM152.646 8.39583V25.314C152.646 25.7197 152.747 26.0342 152.95 26.2573C153.173 26.4804 153.488 26.592 153.893 26.592H155.05V30H152.554C151.195 30 150.11 29.6044 149.299 28.8133C148.487 28.0222 148.081 26.9267 148.081 25.527V8.39583H152.646ZM165.283 30.3651C163.62 30.3651 162.159 30.0203 160.901 29.3306C159.664 28.6206 158.7 27.6367 158.011 26.379C157.341 25.101 157.007 23.6202 157.007 21.9365C157.007 20.2528 157.341 18.7821 158.011 17.5244C158.7 16.2464 159.664 15.2625 160.901 14.5728C162.159 13.8628 163.62 13.5078 165.283 13.5078C166.926 13.5078 168.366 13.8628 169.604 14.5728C170.862 15.2625 171.835 16.2464 172.525 17.5244C173.215 18.7821 173.56 20.2528 173.56 21.9365C173.56 23.6202 173.215 25.101 172.525 26.379C171.835 27.6367 170.862 28.6206 169.604 29.3306C168.366 30.0203 166.926 30.3651 165.283 30.3651ZM165.283 26.8659C166.419 26.8659 167.291 26.4399 167.9 25.5879C168.529 24.7156 168.843 23.4985 168.843 21.9365C168.843 20.3745 168.529 19.1675 167.9 18.3155C167.291 17.4432 166.419 17.0071 165.283 17.0071C164.147 17.0071 163.265 17.4432 162.636 18.3155C162.007 19.1675 161.692 20.3745 161.692 21.9365C161.692 23.4985 162.007 24.7156 162.636 25.5879C163.265 26.4399 164.147 26.8659 165.283 26.8659ZM191.718 24.675L194.731 13.8729H199.082L194.153 30H189.771L186.789 19.8673L183.777 30H179.395L174.496 13.8729H178.847L181.86 24.675L184.933 13.8729H188.615L191.718 24.675Z" fill="white"/>
</svg>
